<svg xmlns="http://www.w3.org/2000/svg" xmlns:xlink="http://www.w3.org/1999/xlink" version="1.1" x="0px" y="0px" viewBox="0 0 512 512" style="enable-background:new 0 0 512 512;">
<g id="Icon_x5F_Group_x5F_1">
	<path style="fill: currentColor;" d="M247.74,187.343c-4.868,0.483-9.753,1.235-14.442,2.684c-1.092,0.215-1.772,1.172-2.514,1.906   c0.385,0.626,1.154,1.87,1.539,2.488c2.452-0.51,4.877-1.145,7.284-1.825c-0.519,3.382-0.242,8.071,3.749,9.1   c2.711-2.389,3.454-6.04,3.874-9.449c1.226-0.564,3.212-1.065,2.908-2.845C249.825,188.381,249.101,186.878,247.74,187.343z"/>
	<path style="fill: currentColor;" d="M250.47,175.013c-8.617-3.15-18.397-0.877-25.877,4c-1.736,1.002,0.322,2.881,1.145,3.785   c4.895-1.951,10.201-3.284,15.489-2.344c4.375,0.34,8.321,2.434,12.625,3.114c0.734-1.503,1.664-2.962,1.915-4.644   C255.292,176.4,252.474,175.872,250.47,175.013z"/>
	<path style="fill: currentColor;" d="M196.264,255.185c-4.581-2.631-9.431-5.476-11.954-10.344c-2.998-5.082-2.523-11.158-2.505-16.813   c0.107-1.45-1.611-1.834-2.711-1.467c-1.378,0.224-1.557,2.022-1.539,3.15c-0.161,5.691,0.08,11.686,2.792,16.831   c2.854,5.574,8.134,9.413,13.61,12.151C196.129,260.277,198.322,256.375,196.264,255.185z"/>
	<path style="fill: currentColor;" d="M131.294,331.6c-11.301-6.246-25.224-6.863-37.348-2.81c-1.476,0.582-0.698,2.407-0.77,3.588   c2.139,0.251,4.286-0.018,6.353-0.6c9.261-2.434,19.336-1.342,27.917,2.881c10.594,4.993,18.638,14.737,22.146,25.859   c0.877,2.505,1.181,5.27,2.819,7.454c0.698-0.268,2.103-0.805,2.81-1.083c0.116-3.776-1.28-7.346-2.559-10.827   C148.697,345.755,141.145,336.727,131.294,331.6z"/>
	<path style="fill: currentColor;" d="M291.182,150.496c1.915-8.33-1.262-17.439-7.606-23.076c-3.087-2.81-6.756-5.234-8.688-9.055   c-1.53-3.007-2.479-6.299-4.259-9.18c-4.205-7.319-12.008-12.509-20.455-13.234c-7.212-0.85-14.29,2.058-21.493,0.886   c-10.523-1.637-19.408-8.098-29.546-10.952c-12.303-3.713-26.181-3.83-37.849,2.022c-7.973,3.812-14.102,10.675-18.236,18.379   c-6.684,1.181-13.064,4.331-17.77,9.27c-8.608,8.527-12.035,20.992-12.16,32.821c-0.027,17.225,5.181,33.858,10.809,49.956   c4.232,11.784,6.299,24.293,6.577,36.784c-1.092,9.735-5.369,18.79-10.29,27.148c-2.219-1.011-4.349-2.765-6.926-2.532   c-2.496,0.966-3.928,3.418-5.53,5.431c-3.49,4.948-7.158,9.807-10.138,15.077c-1.047,1.512-0.555,3.329-0.197,4.975   c-4.975,8.107-10.639,15.757-15.9,23.667c-12.625,18.37-24.633,37.617-31.371,59.02c-0.823,2.121,1.834,2.711,3.32,3.087   c3.221-8.142,6.272-16.374,10.326-24.15c10.388-21.251,25.474-39.639,37.706-59.762c19.497,10.048,37.608,24.41,48.408,43.826   c1.548,2.318,1.977,6.058,5.1,6.791c6.72,1.968,13.502,3.731,20.106,6.076c-2.738,5.136-5.897,10.039-8.474,15.265   c2.13,3.454,5.369,5.986,7.955,9.082c16.187,17.565,28.812,38.1,38.977,59.646c1.467-0.045,2.935-0.081,4.402-0.134   c-2.658-7.847-6.97-15.023-10.988-22.244c-9.69-17.001-21.448-32.83-35.201-46.779c3.033-5.503,6.514-10.782,9.064-16.544   c-0.886-1.056-1.942-1.986-3.311-2.318c-6.398-2.121-12.912-3.874-19.381-5.78c-1.226-0.295-2.407-0.922-2.827-2.192   c-9.297-18.692-25.394-33.196-43.111-43.791c-3.418-2.085-7.06-3.776-10.424-5.941c3.928-6.147,7.874-12.303,12.563-17.905   c7.829,3.892,14.988,8.993,22.038,14.12c20.347,14.988,38.046,33.662,51.414,55.136c18.28,28.884,29.886,61.418,38.234,94.417   c1.387-0.045,2.783-0.089,4.179-0.125c-3.982-19.068-10.29-37.581-17.556-55.629c-6.684-15.847-14.424-31.326-24.105-45.553   c4.885,1.512,10.057,2.434,15.104,1.127c14.272,29.411,24.392,60.8,30.333,92.932c0.438,2.496,1.002,4.975,1.745,7.4   c1.226-0.063,2.443-0.134,3.678-0.215c-0.054-4.662-1.226-9.18-2.103-13.726c-2.792-13.323-5.959-26.584-10.129-39.549   c-8.527-26.128-19.265-51.763-34.154-74.947c0.591-4.554,3.767-8.151,5.753-12.142c1.843-3.284,2.3-7.328,4.966-10.12   c1.861-1.942,4.608-2.407,7.114-2.962c6.398,0.43,12.59,2.156,18.943,2.935c5.789,0.662,12.527-1.306,15.48-6.702   c2.228-3.695,1.718-8.134,2.255-12.223c0.197-3.024,3.06-4.581,4.796-6.693c1.709-1.637,0.716-4.197,1.101-6.263   c0.984-1.333,2.326-2.407,3.069-3.919c0.922-2.658-0.546-5.682,0.662-8.259c3.346-1.602,7.355-1.7,10.335-4.062   c2.3-1.915,2.389-5.333,1.02-7.82c-3.409-7.239-6.711-14.567-9.127-22.208c-1.512-4.724,1.297-9.252,2.872-13.565   c2.058-4.868,2.13-10.218,1.986-15.408c5.252-0.447,10.648-1.244,15.247-3.991C285.402,162.889,289.956,157.162,291.182,150.496z    M259.435,179.191c-1.11,6.8-6.183,13.019-4.474,20.177c1.62,6.129,4.402,11.892,6.8,17.752c0.984,2.738,3.087,5.217,3.159,8.187   c-3.114,3.248-8.778,2.031-11.623,5.673c-1.575,2.774-0.331,6.111-0.868,9.109c-1.145,1.637-3.329,1.145-5.011,1.038   c-3.812-0.394-7.149-2.389-10.523-4.009c-1.951-0.832-3.624,2.112-2.076,3.409c4.071,3.212,9.297,4.501,14.343,5.252   c0.617,2.872-1.629,4.537-3.4,6.308c-4.778,5.082-0.483,13.529-5.753,18.316c-4.644,4.089-11.265,2.398-16.723,1.432   c-6.72-1.217-14.451-3.382-20.634,0.662c-5.36,3.669-5.897,10.693-9.225,15.82c-4.322,6.765-6.532,14.916-5.906,22.942   c0.456,2.112,2.64,1.289,4.179,1.19c0.107-2.165,0.098-4.331,0.188-6.487c3.49,5.798,6.908,11.677,9.789,17.797   c-7.275,0.85-15.417-1.521-20.267-7.221c-15.471-20.893-35.38-38.324-57.382-52.076c4.939-8.348,8.894-17.323,10.693-26.906   c8.178,0,16.267-3.329,22.047-9.127c5.637-5.431,9.136-12.706,11.265-20.159c3.561,2.962,8.062,5.512,12.822,3.892   c-0.072-0.832-0.233-2.487-0.313-3.32c-2.479-0.752-5.342-0.465-7.471-2.147c-4.689-3.284-6.532-9.18-7.212-14.603   c-0.501-5.825,0.089-12.187,3.686-17.019c2.309-3.159,6.604-5.163,10.442-3.722c4.349,1.709,6.648,6.299,7.767,10.567   c1.253,4.644,0.018,9.503,1.038,14.173c4.098,0.752,8.393,1.763,12.545,0.913c1.628-6.711,0.555-13.887,2.747-20.499   c1.512-4.402,7.042-4.939,9.413-8.661c2.613-3.839,2.3-8.751,1.244-13.046c5.753,1.226,11.65-0.224,16.491-3.454   c8.151,3.338,17.305,2.156,25.215-1.244C259.265,159.488,260.706,169.42,259.435,179.191z M264.088,165.618   c-0.734-6.058-2.103-12.008-3.946-17.824c2.326-2.04,4.921-3.937,6.487-6.657c1.423-2.711-2.756-4.537-4.018-1.933   c-5.038,6.908-13.86,10.344-22.253,9.825c-5.682-0.143-11.051-2.595-15.578-5.879c-2.425-1.682-4.027-4.492-6.988-5.324   c-0.385,1.083-1.754,2.273-0.922,3.49c2.264,3.409,5.888,5.539,9.091,7.973c-5.574,2.774-12.518,1.485-17.234-2.38   c-1.199-0.787-2.317-2.407-3.928-1.637c-0.421,0.546-1.244,1.629-1.664,2.174c1.807,2.264,4.34,3.74,6.398,5.736   c1.852,3.839,2.55,9.002-0.125,12.643c-2.854,2.765-7.248,4.018-8.912,7.937c-2.666,6.004-2.183,12.786-2.899,19.184   c-1.637-0.116-3.275-0.251-4.912-0.412c0.403-6.595-0.215-13.583-3.991-19.211c-2.586-4.313-7.525-7.373-12.661-6.782   c-6.908,0.591-11.919,6.845-13.61,13.18c-2.022,7.964-1.163,16.67,2.434,24.07c-2.112,7.203-4.778,14.504-9.941,20.133   c-5.109,5.628-12.536,9.243-20.213,9.046c-0.376-12.33-2.649-24.58-6.657-36.239c-5.324-16.518-11.319-33.447-10.451-51.056   c0.653-11.23,4.966-22.889,14.218-29.823c4.018-3.141,8.948-4.715,13.941-5.458c3.534-6.425,7.794-12.76,14.209-16.616   c11.417-7.355,26.181-7.534,38.762-3.302c10.693,3.454,20.401,10.254,31.872,10.952c7.489,0.582,14.961-2.693,22.387-0.564   c5.243,1.458,9.986,4.778,12.974,9.35c2.845,3.964,3.91,8.903,6.809,12.84c2.81,4.053,7.355,6.433,10.263,10.406   c4.698,5.852,5.548,14.487,1.933,21.09C281.008,162.003,272.24,165.698,264.088,165.618z"/>
	<path style="fill: currentColor;" d="M310.223,219.072c-1.369-0.17-2.953-0.689-4.089,0.376c-1.96,1.378-0.125,4.715,2.183,4.241   c5.306,0.304,10.344,2.649,14.191,6.281c1.825,2.3,5.154-0.922,3.266-3.024C321.533,222.875,316.084,219.904,310.223,219.072z"/>
	<path style="fill: currentColor;" d="M319.538,236.511c-3.785-3.785-7.597-8.402-13.001-9.682c-2.541,1.387-1.539,4.027,0.224,5.566   c-0.743,2.872-1.736,5.932-0.707,8.876c0.116,1.825,2.55,3.033,3.937,1.772c2.273-1.628,2.443-4.653,3.06-7.122   c1.718,1.459,2.89,3.865,5.172,4.483C320.486,240.779,321.3,237.656,319.538,236.511z"/>
	<path style="fill: currentColor;" d="M443.877,242.676c-3.069-7.999-2.747-16.706-4.205-25.027   c-3.168-20.652-15.381-40.301-33.984-50.349c-15.319-8.724-33.689-10.201-50.868-7.82c-5.762,0.626-11.301,2.398-17.046,3.069   c-12.491,1.718-24.615,6.72-34.225,14.961c-7.713,6.523-13.824,15.909-13.771,26.307c-0.367,7.606,2.827,14.943,7.57,20.759   c-0.456,4.17-0.17,8.67-2.219,12.473c-2.72,4.411-7.131,7.319-11.238,10.308c-2.013,1.36-3.185,4.035-2.273,6.389   c1.029,3.543,4.546,5.646,5.682,9.109c-0.528,1.861-1.593,3.525-2.094,5.396c-0.349,1.807,0.877,3.329,1.629,4.859   c-0.528,1.306-1.36,2.568-1.387,4.027c0.036,2.282,1.843,4.062,2.112,6.281c0.063,3.856-1.62,7.794-0.233,11.578   c1.127,3.481,4.125,6.12,7.579,7.194c8.429,2.613,17.52,2.031,25.913,4.778c3.203,0.984,5.064,3.973,6.201,6.935   c3.194,8.42,6.147,17.019,7.633,25.931c0.948,5.655-1.038,11.247-3.865,16.061c-12.84,22.074-27.461,43.03-40.865,64.755   c0.072,0.403,0.206,1.217,0.268,1.62c1.199,0.43,2.398,0.895,3.606,1.351c8.67-14.988,18.441-29.295,27.586-43.996   c1.772-0.43,3.561-0.841,5.351-1.253c-7.051,16.169-14.835,32.006-21.752,48.229c1.476,0.143,2.953,0.304,4.438,0.474   c7.767-16.902,15.444-33.858,23.148-50.788c4.572-2.067,8.93-4.537,13.296-6.997c-8.151,19.623-16.849,39.021-24.839,58.725   c1.333,0.215,2.675,0.438,4.018,0.662c1.664-2.854,2.899-5.915,4.179-8.948c7.57-18.048,15.542-35.917,22.701-54.125   c11.364-7.489,22.674-15.059,34.1-22.441c0.018,4.966,0.412,9.914,0.331,14.88c-2.926,0.626-5.986,0.635-8.849,1.62   c-7.543,2.183-14.084,7.248-18.477,13.708c-4.599,6.63-6.863,14.46-9.601,21.958c-3.848,11.077-7.615,22.191-11.149,33.375   c1.503,0.009,3.015,0.009,4.528,0.027c3.937-11.221,7.31-22.629,11.319-33.814c0.51,10.961,0.081,21.931,0.34,32.892   c1.405-0.233,2.819-0.465,4.223-0.698c-0.215-13.565,0.394-27.157-0.43-40.704c1.521-7.167,5.906-13.994,11.99-18.128   c0.34,19.095,0.143,38.207,0.179,57.32c1.297-0.134,2.595-0.268,3.901-0.394c0.376-19.632-0.089-39.272,0.215-58.904   c0.098-0.215,0.304-0.653,0.403-0.868c3.427-1.772,7.275-2.532,11.104-2.675c0.152,20.007-0.009,40.015,0.089,60.022   c1.396-0.304,2.792-0.617,4.197-0.948c0.197-27.067-0.125-54.143,0.224-81.21c2.049,3.132,3.821,6.442,5.744,9.655   c7.382,12.876,15.954,25.331,20.356,39.648c2.443,7.346,1.843,15.202,1.951,22.826c1.915-0.752,3.821-1.557,5.727-2.344   c-0.027-6.979-1.441-13.887-3.069-20.643c-4.653-16.589-14.8-30.763-23.282-45.526c-4.044-6.935-8.429-13.789-10.997-21.448   c10.773,1.816,22.298,2.935,32.606-1.503c6.246-0.045,12.661-0.233,18.531-2.693c9.368-3.481,17.332-10.809,21.144-20.097   c4.152-9.869,3.338-21.341-0.85-31.049C454.668,258.55,447.33,251.713,443.877,242.676z M323.394,303.316   c-8.196-3.355-17.323-2.595-25.797-4.823c-2.997-0.743-6.049-2.89-6.55-6.12c-0.089-3.302,1.083-6.523,0.743-9.816   c-0.358-2.389-2.219-4.358-1.906-6.863c5.557,0.689,11.382,0.743,16.41-2.076c0.027-1.62-0.564-4.367-2.783-3.391   c-4.125,1.584-9.01,1.951-13.01-0.188c-2.049-2.138,1.199-4.724,0.85-7.212c0.761-4.769-5.709-6.89-5.109-11.373   c5.387-4.349,11.838-8.491,14.191-15.355c1.557-6.183,1.047-12.697,2.738-18.862c2.004-8.268,5.941-16.07,11.561-22.468   c0.447,11.382,5.932,21.967,13.708,30.092c5.601,6.335,13.234,10.684,17.994,17.797c8.769,12.706,11.167,29.385,7.185,44.211   c-2.792,11.301-11.927,20.652-23.237,23.515C328.647,307.53,326.651,304.559,323.394,303.316z M388.266,336.449   c-12.84,8.277-25.591,16.715-38.359,25.108c-7.964,5.1-16.303,9.753-25.17,13.082c4.572-7.964,10.254-15.408,13.305-24.168   c1.503-4.027,1.441-8.456,0.743-12.634c-1.521-7.901-3.982-15.587-6.961-23.05c7.543,3.722,15.65,6.255,23.935,7.686   c8.715,1.494,17.77,2.13,26.423-0.17C383.81,327.179,385.823,331.922,388.266,336.449z M455.813,294.94   c-2.425,7.167-7.597,13.305-14.138,17.081c-4.42,2.666-9.485,3.982-14.522,4.903c2.926-3.758,6.577-7.301,7.74-12.08   c0.653-2.353-3.338-3.499-3.991-1.181c-2.738,6.756-8.42,12.241-15.372,14.487c-7.865,2.756-16.357,1.906-24.481,1.038   c7.964-4.035,15.113-10.344,18.567-18.728c1.065-2.156-2.577-3.713-3.731-1.942c-1.852,2.944-3.427,6.102-5.879,8.626   c-8.491,9.037-21.305,13.207-33.536,12.321c-9.941-0.841-19.9-2.917-29.036-6.988c8.796-3.857,15.945-11.238,19.148-20.329   c6.496-18.486,3.427-40.552-9.306-55.7c-7.149-7.668-16.374-13.475-21.904-22.602c-4.93-7.632-6.809-16.867-6.022-25.868   c-0.886-0.474-1.781-0.931-2.675-1.36c-9.61,8.071-15.918,19.533-18.683,31.693c-3.57-6.729-4.921-14.809-2.398-22.128   c3.033-9.091,10.684-15.703,18.567-20.652c7.785-4.742,16.643-7.534,25.644-8.778c6.326-0.805,12.482-2.595,18.826-3.373   c12.214-1.244,24.866-0.51,36.427,3.928c14.88,5.449,27.228,17.072,34.002,31.353c4.483,9.127,6.612,19.229,7.454,29.322   c0.438,6.022,1.271,12.124,3.722,17.708c3.642,8.688,10.791,15.372,14.2,24.195C457.817,277.707,458.73,286.825,455.813,294.94z"/>
	<path style="fill: currentColor;" d="M401.777,369.395c0.224,16.357,0.009,32.731,0.224,49.097c1.387-0.295,2.783-0.582,4.179-0.859   c0.045-16.115-0.054-32.23,0.098-48.336C406.654,366.201,401.58,366.577,401.777,369.395z"/>
</g>
</svg>