<?xml version="1.0" encoding="utf-8"?>
<!-- Generator: Adobe Illustrator 18.0.0, SVG Export Plug-In . SVG Version: 6.00 Build 0)  -->
<!DOCTYPE svg PUBLIC "-//W3C//DTD SVG 1.1//EN" "http://www.w3.org/Graphics/SVG/1.1/DTD/svg11.dtd">
<svg version="1.1" xmlns="http://www.w3.org/2000/svg" xmlns:xlink="http://www.w3.org/1999/xlink" x="0px" y="0px"
	 viewBox="0 0 615 360" enable-background="new 0 0 615 360" xml:space="preserve">
<head>
<script src="//use.typekit.net/qpu2dax.js"></script>
<script>try{Typekit.load();}catch(e){}</script>
</head>

<symbol  id="circular_star" viewBox="3.6 3.6 3.6 3.6">
	<path opacity="0.5" fill="#D6DBEF" d="M7.2,5.4c0-1-0.8-1.8-1.8-1.8S3.6,4.4,3.6,5.4s0.8,1.8,1.8,1.8S7.2,6.4,7.2,5.4z"/>
</symbol>
<symbol  id="circular_star_2" viewBox="2.5 2.5 5.7 5.7">
	<g opacity="0.3">
		<polygon fill="#D6DBEF" points="2.5,2.5 8.3,2.5 8.3,8.3 2.5,8.3 		"/>
	</g>
</symbol>
<symbol  id="large_sprite_star" viewBox="0 0 18 18">
	<polygon fill="#D6DBEF" points="18,9.5 10.2,9.5 15.7,15 15,15.7 9.5,10.2 9.5,18 8.5,18 8.5,10.2 3,15.7 2.3,15 7.8,9.5 0,9.5 
		0,8.5 7.8,8.5 2.3,3 3,2.3 8.5,7.8 8.5,0 9.5,0 9.5,7.8 15,2.3 15.7,3 10.2,8.5 18,8.5 	"/>
</symbol>
<symbol  id="small_sprite_star" viewBox="-6.1 -6.1 12.2 12.2">
	<polygon fill="#D6DBEF" points="6.1,0.5 1.2,0.5 4.7,3.9 3.9,4.7 0.5,1.2 0.5,6.1 -0.5,6.1 -0.5,1.2 -4,4.7 -4.7,3.9 -1.2,0.5 
		-6.1,0.5 -6.1,-0.5 -1.2,-0.5 -4.7,-4 -4,-4.7 -0.5,-1.2 -0.5,-6.1 0.5,-6.1 0.5,-1.2 3.9,-4.7 4.7,-4 1.2,-0.5 6.1,-0.5 	"/>
</symbol>
<symbol  id="star_duo_1" viewBox="0 0 32.2 35.1">
	<path opacity="0.6" fill="#D6DBEF" d="M32.2,31.7c0-1.9-1.5-3.4-3.4-3.4s-3.4,1.5-3.4,3.4s1.5,3.4,3.4,3.4S32.2,33.6,32.2,31.7z"/>
	<path opacity="0.4" fill="#D6DBEF" d="M18.2,10.9C12,9,10.7,7.4,9.1,0C7.5,7.4,6.1,9,0,10.9c6.1,2,7.5,3.5,9.1,10.9
		C10.7,14.4,12,12.9,18.2,10.9z"/>
</symbol>
<symbol  id="star_trio_1" viewBox="0 0 42.2 48.7">
	<path opacity="0.6" fill="#D6DBEF" d="M6.1,23.6c0-1.7-1.4-3.1-3.1-3.1S0,22,0,23.6c0,1.7,1.4,3.1,3.1,3.1S6.1,25.3,6.1,23.6z"/>
	<polygon opacity="0.1" fill="#D6DBEF" points="37,40.2 29.2,40.2 34.7,45.7 34,46.4 28.5,40.9 28.5,48.7 27.5,48.7 27.5,40.9 
		22,46.4 21.3,45.7 26.8,40.2 19,40.2 19,39.2 26.8,39.2 21.3,33.6 22,32.9 27.5,38.4 27.5,30.7 28.5,30.7 28.5,38.4 34,32.9 
		34.7,33.6 29.2,39.2 37,39.2 	"/>
	<path fill="#D6DBEF" d="M42.2,6.3c-3.5-1.1-4.3-2-5.2-6.3c-0.9,4.3-1.7,5.2-5.2,6.3c3.5,1.1,4.3,2,5.2,6.3
		C37.9,8.3,38.7,7.4,42.2,6.3z"/>
</symbol>
<g id="background_2">
	<linearGradient id="gradient_1_" gradientUnits="userSpaceOnUse" x1="61.066" y1="426.4088" x2="554.5408" y2="-67.066">
		<stop  offset="0" style="stop-color:#0D133D"/>
		<stop  offset="6.534103e-02" style="stop-color:#20113D"/>
		<stop  offset="0.1562" style="stop-color:#2F0F3E"/>
		<stop  offset="0.2564" style="stop-color:#380D3E"/>
		<stop  offset="0.3721" style="stop-color:#3D0B3E"/>
		<stop  offset="0.5389" style="stop-color:#3F0A3E"/>
		<stop  offset="1" style="stop-color:#12103D"/>
	</linearGradient>
	<rect id="gradient" x="-1" y="-5" fill="url(#gradient_1_)" width="617.6" height="369.3"/>
	
		<use xlink:href="#star_duo_1"  width="32.2" height="35.1" x="0" y="0" transform="matrix(0.6581 0 0 -0.6581 35.0198 100.1768)" overflow="visible"/>
	
		<use xlink:href="#circular_star_2"  width="5.7" height="5.7" x="2.5" y="2.5" transform="matrix(1 0 0 -1 581.9424 78.5133)" overflow="visible"/>
	
		<use xlink:href="#circular_star_2"  width="5.7" height="5.7" x="2.5" y="2.5" transform="matrix(1 0 0 -1 42.7401 239.5134)" overflow="visible"/>
	
		<use xlink:href="#circular_star_2"  width="5.7" height="5.7" x="2.5" y="2.5" transform="matrix(1 0 0 -1 42.4863 143.5134)" overflow="visible"/>
	
		<use xlink:href="#circular_star_2"  width="5.7" height="5.7" x="2.5" y="2.5" transform="matrix(1 0 0 -1 98.4863 75.5133)" overflow="visible"/>
	
		<use xlink:href="#circular_star"  width="3.6" height="3.6" x="3.6" y="3.6" transform="matrix(1 0 0 -1 137.8198 26.3863)" overflow="visible"/>
	
		<use xlink:href="#circular_star"  width="3.6" height="3.6" x="3.6" y="3.6" transform="matrix(1 0 0 -1 15.6134 198.3864)" overflow="visible"/>
	
		<use xlink:href="#circular_star"  width="3.6" height="3.6" x="3.6" y="3.6" transform="matrix(1 0 0 -1 589.6134 158.3864)" overflow="visible"/>
	
		<use xlink:href="#small_sprite_star"  width="12.2" height="12.2" x="-6.1" y="-6.1" transform="matrix(1 0 0 -1 559.8334 103.425)" overflow="visible" opacity="0.4"/>
	
		<use xlink:href="#small_sprite_star"  width="12.2" height="12.2" x="-6.1" y="-6.1" transform="matrix(1 0 0 -1 500.9138 26.9137)" overflow="visible" opacity="0.3"/>
	
		<use xlink:href="#large_sprite_star"  width="18" height="18" x="0" transform="matrix(1 0 0 -1 41.5 40.7928)" overflow="visible" opacity="0.3"/>
	
		<use xlink:href="#large_sprite_star"  width="18" height="18" x="0" transform="matrix(0.5556 0 0 -0.5556 593 229)" overflow="visible" opacity="0.3"/>
	
		<use xlink:href="#star_trio_1"  width="42.2" height="48.7" x="0" transform="matrix(-1 0 0 1 601.9926 264.7064)" overflow="visible"/>
	<path opacity="0.12" fill="#FFFFFF" d="M530.4,263h-53.1H354.2H231h-97.7c-12.9,0-23.4,9.8-23.4,22v0c0,0.7,0,1.4,0.1,2
		c-5,4.3-10.6,7.5-14.8,7.9c-0.5,0-1.1,0-1.6-0.2c-0.4-0.1-0.7,0.4-0.3,0.7c1.3,0.9,2.9,1.8,4.1,2.2c5.2,1.5,11.4,1.3,17.7,1.2
		c4.3,5,10.8,8.2,18.2,8.2h59.5h95.5h99.8h142.3c12.9,0,23.4-9.8,23.4-22v0C553.7,272.8,543.3,263,530.4,263z"/>
</g>
<g id="weber">
	<g>
		<g>
			<path fill="#09A89E" d="M80.5,326.7l-4.3-25.2c-1.6-6.9-4.6-11.9-9.6-14.1c1.2-0.7,2.7-1.2,4.7-1.5c0.8-0.1,1.4-0.8,1.3-1.7
				c-0.1-0.8-0.8-1.4-1.7-1.3c-3.8,0.5-6.3,1.8-7.9,3.4c-0.8-0.1-1.6-0.2-2.5-0.2c-1.1,0-2.1,0.1-3,0.3c1.1-1.7,3.2-3.3,7.2-3.8
				c0.8-0.1,1.4-0.8,1.3-1.7c-0.1-0.8-0.8-1.4-1.7-1.3c-7.5,0.9-9.9,5.2-10.6,8.3c-4.4,2.6-7.1,7.8-8.5,13.8l-5.4,25.3l12.9-0.1
				l0.1,7.9c0,1,0.8,1.8,1.8,1.8l0.4,0c1,0,1.8-0.8,1.8-1.8l-0.1-7.9l9.2-0.1l0.1,7.9c0,1,0.8,1.8,1.8,1.8l0.4,0
				c1,0,1.8-0.8,1.8-1.8l-0.1-7.9L80.5,326.7z"/>
			<g>
				<circle fill="#FFFFFF" cx="56.1" cy="301.2" r="6.2"/>
				<circle fill="#221F1F" cx="56.1" cy="301.2" r="4.3"/>
			</g>
		</g>
		<g>
			<path fill="#FFFFFF" d="M44,295c-0.2,0-0.3,0-0.5-0.1c-1.1-0.3-1.7-1.4-1.4-2.4c0.4-1.6,1-3.1,1.8-4.5c0.8-1.4,1.8-2.6,2.9-3.8
				s2.4-2.1,3.8-2.9c1-0.6,2.2-0.2,2.7,0.7c0.6,1,0.2,2.2-0.7,2.7c-1.1,0.6-2.1,1.4-2.9,2.2c-0.9,0.9-1.6,1.9-2.2,2.9
				c-0.6,1.1-1.1,2.3-1.4,3.5C45.7,294.4,44.9,295,44,295z"/>
		</g>
		<g>
			<path fill="#FFFFFF" d="M77.5,313H42.6l-0.3-0.4c-3.4-4.3-5.3-9.6-5.3-15c0-12.9,10.3-23.4,23-23.4s23,10.4,23,23.2
				c0,5.4-1.9,10.8-5.2,15.1L77.5,313z M43.5,311h32.9c2.9-3.9,4.5-8.7,4.5-13.5c0-11.7-9.4-21.2-21-21.2s-21,9.6-21,21.4
				C39,302.4,40.6,307.1,43.5,311z"/>
		</g>
	</g>
</g>
<g id="skip" display="none">
	<rect x="544.4" y="11" display="inline" fill="none" width="69.6" height="17.4"/>
	
		<text class="tk-adobe-clean" transform="matrix(1 0 0 1 562.2229 23.0229)" display="inline" opacity="0.65" fill="#EF4023" font-size="14">SKIP</text>
</g>
<g id="scene001" display="none">
	<g id="nextbutton" display="inline">
		<path opacity="0.12" fill="#010101" d="M561.5,332h-36.8c-10,0-18-8.1-18-18v0c0-10,8.1-18,18-18h36.8c10,0,18,8.1,18,18v0
			C579.5,323.9,571.4,332,561.5,332z"/>
		<path fill="#301547" stroke="#FFFFFF" stroke-width="2" stroke-miterlimit="10" d="M565.4,328.7h-36.8c-10,0-18-8.1-18-18v0
			c0-10,8.1-18,18-18h36.8c10,0,18,8.1,18,18v0C583.4,320.6,575.4,328.7,565.4,328.7z"/>
		<rect x="512.2" y="304" fill="none" width="69.6" height="17.4"/>
		<text class="tk-adobe-clean" transform="matrix(1 0 0 1 527.2725 316.0229)" fill="#FFFFFF" font-size="14">NEXT</text>
	</g>
	<g id="weber_1_" display="inline">
		<g>
			<g>
				<g>
					<path fill="none" stroke="#FFFFFF" stroke-width="2" stroke-miterlimit="10" d="M-14,165.8c0.3-0.1,0.6-0.2,0.9-0.3"/>
					<path fill="none" stroke="#FFFFFF" stroke-width="2" stroke-miterlimit="10" stroke-dasharray="1.9471,2.9206" d="M-10.3,164.5
						c37.1-13,38.8-15.7,68.1,11.5"/>
					<path fill="none" stroke="#FFFFFF" stroke-width="2" stroke-miterlimit="10" d="M58.9,177.1c0.2,0.2,0.5,0.5,0.7,0.7
						c0.2-0.3,0.4-0.6,0.6-0.8"/>
					<path fill="none" stroke="#FFFFFF" stroke-width="2" stroke-miterlimit="10" stroke-dasharray="2.0875,3.1312" d="M61.9,174.3
						c9.5-14,18.9-27.9,28.4-41.9"/>
					<path fill="none" stroke="#FFFFFF" stroke-width="2" stroke-miterlimit="10" d="M91.2,131.1c0.2-0.3,0.4-0.6,0.6-0.8
						c0.2,0.3,0.3,0.6,0.5,0.9"/>
					<path fill="none" stroke="#FFFFFF" stroke-width="2" stroke-miterlimit="10" stroke-dasharray="1.9612,2.9418" d="M93.6,133.8
						c13.9,25.4,27.8,50.7,41.8,76.1"/>
					<path fill="none" stroke="#FFFFFF" stroke-width="2" stroke-miterlimit="10" d="M136.1,211.1c0.2,0.3,0.3,0.6,0.5,0.9
						c0.1-0.3,0.2-0.6,0.3-0.9"/>
					<path fill="none" stroke="#FFFFFF" stroke-width="2" stroke-miterlimit="10" stroke-dasharray="2.0353,3.0529" d="M138,208.2
						c14.6-39.3,29.1-78.6,43.7-117.8"/>
					<path fill="none" stroke="#FFFFFF" stroke-width="2" stroke-miterlimit="10" d="M182.3,88.9c0.1-0.3,0.2-0.6,0.3-0.9
						c0.1,0.3,0.2,0.6,0.3,1"/>
					<path fill="none" stroke="#FFFFFF" stroke-width="2" stroke-miterlimit="10" stroke-dasharray="1.9988,2.9982" d="M183.6,91.9
						c8,31.5,19.9,95.7,59.3,83.4c33.8-10.6,47.5-111.6,101.4-74.3c32.9,22.8-15.7,83.3,38.2,106c62.5,26.3,60.5-48.9,84.3-73.3"/>
					<path fill="none" stroke="#FFFFFF" stroke-width="2" stroke-miterlimit="10" d="M467.9,132.7c0.2-0.2,0.5-0.4,0.7-0.7"/>
				</g>
			</g>
		</g>
		<g>
			<path fill="#E25A42" d="M488.7,123.5c0,0-1.6,5.4-5.4,6.5s-8.1-2.4-8.1-2.4s1.6-5.4,5.4-6.5S488.7,123.5,488.7,123.5z"/>
			<path fill="#FFFFFF" d="M502.6,97.9l-16.4,13.9l7.4,24.2l21.4,2.3c0,0,2.1-17.8,8.8-19.9l-1.4-4.5l-1.4-4.5
				C514.3,111.5,502.6,97.9,502.6,97.9z"/>
			<circle fill="#2D214F" cx="506.4" cy="118.8" r="7.1"/>
			<path fill="#2D214F" d="M510.2,119.4l9.1-2.8c0.3-0.1,0.5-0.4,0.4-0.7l-0.6-2c-0.1-0.3-0.4-0.5-0.7-0.4l-9.1,2.8
				c-0.3,0.1-0.5,0.4-0.4,0.7l0.6,2C509.5,119.3,509.9,119.5,510.2,119.4z"/>
		</g>
	</g>
	<rect x="123.5" y="278" display="inline" fill="none" width="398.5" height="39.8"/>
	<text class="tk-adobe-clean" transform="matrix(1 0 0 1 123.5063 290.0205)" display="inline" fill="#FFEBBA" font-size="14">I’M DIZZY! LET’S TRY A SMOOTHER RIDE.</text>
</g>
<g id="scene002" display="none">
	<rect x="123.5" y="278" display="inline" fill="none" width="430.5" height="23.8"/>
	<text class="tk-adobe-clean" transform="matrix(1 0 0 1 123.5063 290.0205)" display="inline" fill="#FFEBBA" font-size="14">PRESS “P” TO SELECT THE PEN TOOL.</text>
	<g id="pen" display="inline">
		<circle opacity="0.3" fill="#010101" cx="317.5" cy="146" r="90"/>
		<g>
			<path fill="#F3F3F3" d="M352.1,100.5l-6.2-4.3L325.2,82l-16,23.2l0.7,0.5l7.8,5.4l-24,14.3l-19.4,75.7l66.5-39.5l6.7-29.9l0,0
				l4.1,2.9l2.9,2l16-23.2L352.1,100.5z M335,157.3l-45.3,26.9l24.1-32.2c1.1,0.2,2.3,0,3.4-0.6c2.4-1.4,3.1-4.4,1.7-6.8
				c-1.4-2.4-4.5-3.1-6.8-1.7c-2.3,1.4-3.1,4.2-1.9,6.5l-24.1,32.2l13.3-52l23.8-14.1l18.4,12.7L335,157.3z M351.7,129.1l-3.1-2.1
				l-4.4-3l-18.4-12.7l-4-2.8l-4.7-3.2l9.7-14.1l15.2,10.5l6.3,4.3l13.1,9L351.7,129.1z"/>
		</g>
	</g>
</g>
<g id="scene003">
	<g id="firstcoordinate">
		<g>
			<circle fill="#D6DBEF" cx="129.5" cy="152.5" r="12"/>
			<circle fill="none" stroke="#D6DBEF" stroke-width="2" stroke-miterlimit="10" cx="129.5" cy="152.5" r="18.5"/>
		</g>
	</g>
	<rect x="123.5" y="278" fill="none" width="430.5" height="23.8"/>
	<text class="tk-adobe-clean" transform="matrix(1 0 0 1 123.5063 290.0205)" fill="#FFEBBA" font-size="14">CLICK TO CREATE THE FIRST POINT AND A START PATH</text>
	<g id="click_x5F_note">
		<line fill="#EBEBEB" stroke="#FFEAB9" stroke-width="3" stroke-miterlimit="10" x1="130.7" y1="187" x2="130.7" y2="198.7"/>
		<rect x="66.9" y="205.1" fill="none" width="128.5" height="23.8"/>
		<text class="tk-adobe-clean" transform="matrix(1 0 0 1 92.4434 215.3982)" fill="#FFEBBA" font-size="12">CLICK HERE</text>
		<polygon fill="#FFEAB9" stroke="#FFEAB9" stroke-miterlimit="10" points="135.6,187.3 130.7,178.7 125.7,187.3 		"/>
	</g>
</g>
<g id="scene004" display="none">
	<rect x="123.5" y="278" display="inline" fill="none" width="430.5" height="53.8"/>
	
		<text class="tk-adobe-clean" id="click_x5F_drag_x5F_instruction001_1_" transform="matrix(1 0 0 1 123.5063 290.0205)" display="inline" fill="#FFEBBA" font-size="14">CLICK AND DRAG TO CREATE A POINT WITH HANDLES.</text>
	<g id="graphic_1_" display="inline">
		<g>
			<circle fill="#D6DBEF" cx="240" cy="81.5" r="12"/>
			<circle fill="none" stroke="#D6DBEF" stroke-width="2" stroke-miterlimit="10" cx="240" cy="81.5" r="18.5"/>
		</g>
	</g>
	<g id="handle_guide" display="inline">
		<circle fill="#D6DBEF" cx="343.5" cy="82" r="6"/>
		<g>
			<g>
				<line fill="none" stroke="#D6DBEF" stroke-width="2" stroke-miterlimit="10" x1="326" y1="82" x2="325" y2="82"/>
				
					<line fill="none" stroke="#D6DBEF" stroke-width="2" stroke-miterlimit="10" stroke-dasharray="3,3" x1="322" y1="82" x2="262" y2="82"/>
				<line fill="none" stroke="#D6DBEF" stroke-width="2" stroke-miterlimit="10" x1="260" y1="82" x2="258" y2="82"/>
				<g>
					<polygon fill="#D6DBEF" points="325,77 333.6,82 325,87 					"/>
				</g>
			</g>
		</g>
	</g>
	<g id="click_x5F_drag_x5F_note" display="inline">
		<line fill="#EBEBEB" stroke="#FFEAB9" stroke-width="3" stroke-miterlimit="10" x1="241.7" y1="116" x2="241.7" y2="127.7"/>
		<rect x="208.9" y="134.1" fill="none" width="65.5" height="23.8"/>
		<text class="tk-adobe-clean" transform="matrix(1 0 0 1 222.7803 144.3982)" fill="#FFEBBA" font-size="12">CLICK</text>
		<polygon fill="#FFEAB9" stroke="#FFEAB9" stroke-miterlimit="10" points="246.6,116.3 241.7,107.7 236.7,116.3 		"/>
		<line fill="#EBEBEB" stroke="#FFEAB9" stroke-width="3" stroke-miterlimit="10" x1="342.7" y1="102" x2="342.7" y2="127.7"/>
		<rect x="238.7" y="134.1" fill="none" width="208" height="23.8"/>
		<text class="tk-adobe-clean" transform="matrix(1 0 0 1 289.4414 144.3982)" fill="#FFEBBA" font-size="12">DRAG TILL HERE</text>
		<polygon fill="#FFEAB9" stroke="#FFEAB9" stroke-miterlimit="10" points="347.7,102.3 342.7,93.7 337.7,102.3 		"/>
	</g>
</g>
<g id="scene005" display="none">
	<g display="inline">
		<circle fill="#D6DBEF" cx="365" cy="203.5" r="12"/>
		<circle fill="none" stroke="#D6DBEF" stroke-width="2" stroke-miterlimit="10" cx="365" cy="203.5" r="18.5"/>
	</g>
	<circle display="inline" fill="#D6DBEF" cx="439.5" cy="204" r="6"/>
	<g display="inline">
		<g>
			<line fill="none" stroke="#D6DBEF" stroke-width="2" stroke-miterlimit="10" x1="421" y1="204" x2="420" y2="204"/>
			
				<line fill="none" stroke="#D6DBEF" stroke-width="2" stroke-miterlimit="10" stroke-dasharray="3,3" x1="417" y1="204" x2="387" y2="204"/>
			<line fill="none" stroke="#D6DBEF" stroke-width="2" stroke-miterlimit="10" x1="385" y1="204" x2="383" y2="204"/>
			<g>
				<polygon fill="#D6DBEF" points="420,199 428.6,204 420,209 				"/>
			</g>
		</g>
	</g>
	<rect x="123.5" y="278" display="inline" fill="none" width="398.5" height="49.8"/>
	
		<text class="tk-adobe-clean" id="click_x5F_drag_x5F_instruction002" transform="matrix(1 0 0 1 123.5063 290.0205)" display="inline" fill="#FFEBBA" font-size="14">ANOTHER! CLICK AND DRAG FOR A SMOOTH CURVE. </text>
</g>
<g id="scene006" display="none">
	<g display="inline">
		<circle fill="#D6DBEF" cx="514" cy="159.5" r="12"/>
		<circle fill="none" stroke="#D6DBEF" stroke-width="2" stroke-miterlimit="10" cx="514" cy="159.5" r="18.5"/>
	</g>
	<rect x="123.5" y="278" display="inline" fill="none" width="398.5" height="49.8"/>
	<text class="tk-adobe-clean" transform="matrix(1 0 0 1 123.5063 290.0205)" display="inline" fill="#FFEBBA" font-size="14">USE HANDLES TO CREATE ‘CURVED PATHS!’</text>
</g>
<g id="scene007" display="none">
	<rect x="123.5" y="278" display="inline" fill="none" width="398.5" height="49.8"/>
	<text class="tk-adobe-clean" transform="matrix(1 0 0 1 123.5063 290.0205)" display="inline" fill="#FFEBBA" font-size="14">CLICK ON THE FINAL TARGET...</text>
	<g display="inline">
		<circle fill="#D6DBEF" cx="514" cy="159.5" r="12"/>
		<circle fill="none" stroke="#D6DBEF" stroke-width="2" stroke-miterlimit="10" cx="514" cy="159.5" r="18.5"/>
	</g>
</g>
<g id="scene008" display="none">
	<rect x="123.5" y="278" display="inline" fill="none" width="398.5" height="49.8"/>
	<text class="tk-adobe-clean" transform="matrix(1 0 0 1 123.5063 290.0205)" display="inline" fill="#FFEBBA" font-size="14">DRAW CURVED LINES FOR MORE POINTS!</text>
</g>
<g id="scene009" display="none">
	<rect x="123.5" y="278" display="inline" fill="none" width="396.5" height="37.8"/>
	<text class="tk-adobe-clean" transform="matrix(1 0 0 1 123.5063 290.0205)" display="inline" fill="#FFEBBA" font-size="14">PRESS “ESC” TO END YOUR PATH. </text>
</g>
<g id="scene010" display="none">
	<g id="gobutton" display="inline">
		<path opacity="0.12" fill="#010101" d="M560.4,331.8h-36.8c-10,0-18-8.1-18-18v0c0-10,8.1-18,18-18h36.8c10,0,18,8.1,18,18v0
			C578.4,323.7,570.3,331.8,560.4,331.8z"/>
		<path fill="#301547" stroke="#FFFFFF" stroke-width="2" stroke-miterlimit="10" d="M564.3,328.5h-36.8c-10,0-18-8.1-18-18v0
			c0-10,8.1-18,18-18h36.8c10,0,18,8.1,18,18v0C582.3,320.5,574.3,328.5,564.3,328.5z"/>
		<rect x="511.1" y="303.8" fill="none" width="69.6" height="17.4"/>
		<text class="tk-adobe-clean" transform="matrix(1 0 0 1 526.9313 315.834)" fill="#FFFFFF" font-size="14">PLAY</text>
	</g>
	<rect x="123.5" y="278" display="inline" fill="none" width="396.5" height="37.8"/>
	<text class="tk-adobe-clean" transform="matrix(1 0 0 1 123.5063 290.0205)" display="inline" fill="#FFEBBA" font-size="14">PERFECT! DRAW CURVES TO GET DOUBLE POINTS</text>
</g>
<g id="scene011" display="none">
	<rect x="123.5" y="278" display="inline" fill="none" width="398.5" height="49.8"/>
	<text class="tk-adobe-clean" transform="matrix(1 0 0 1 123.5063 290.0205)" display="inline" fill="#FFEBBA" font-size="14">OOPS. COULD YOU TRY THAT AGAIN?</text>
</g>
</svg>
